<svg xmlns="http://www.w3.org/2000/svg" width="820" height="450" viewBox="0 0 820 450" font-family="IBM Plex Sans KR, Malgun Gothic, Apple SD Gothic Neo, sans-serif" role="img" aria-label="ImageNet top-5 오차 표"><rect x="0" y="0" width="100%" height="100%" fill="#ECEFEC"/><defs><marker id="af" viewBox="0 0 10 10" refX="9" refY="5" markerWidth="7" markerHeight="7" orient="auto-start-reverse"><path d="M0,0 L10,5 L0,10 z" fill="#2E6B8A"/></marker><marker id="ar" viewBox="0 0 10 10" refX="9" refY="5" markerWidth="7" markerHeight="7" orient="auto-start-reverse"><path d="M0,0 L10,5 L0,10 z" fill="#B4552B"/></marker><marker id="ai" viewBox="0 0 10 10" refX="9" refY="5" markerWidth="7" markerHeight="7" orient="auto-start-reverse"><path d="M0,0 L10,5 L0,10 z" fill="#4E5964"/></marker><marker id="ao" viewBox="0 0 10 10" refX="9" refY="5" markerWidth="7" markerHeight="7" orient="auto-start-reverse"><path d="M0,0 L10,5 L0,10 z" fill="#1E8449"/></marker><marker id="an" viewBox="0 0 10 10" refX="9" refY="5" markerWidth="7" markerHeight="7" orient="auto-start-reverse"><path d="M0,0 L10,5 L0,10 z" fill="#C0392B"/></marker><marker id="ac" viewBox="0 0 10 10" refX="9" refY="5" markerWidth="7" markerHeight="7" orient="auto-start-reverse"><path d="M0,0 L10,5 L0,10 z" fill="#9A7B00"/></marker></defs><text x="20" y="30" font-size="15" fill="#1C232C" text-anchor="start" font-weight="bold">논문 그림 4 — ImageNet top-5 오차. 해상도 · 자르기 · 모델 수가 줄마다 다르다</text><line x1="475.0" y1="55" x2="475.0" y2="380" stroke="#CFD6D3" stroke-width="1"/><text x="475.0" y="396" font-size="10" fill="#7A8590" text-anchor="middle">5%</text><line x1="565.0" y1="55" x2="565.0" y2="380" stroke="#CFD6D3" stroke-width="1"/><text x="565.0" y="396" font-size="10" fill="#7A8590" text-anchor="middle">6%</text><line x1="655.0" y1="55" x2="655.0" y2="380" stroke="#CFD6D3" stroke-width="1"/><text x="655.0" y="396" font-size="10" fill="#7A8590" text-anchor="middle">7%</text><line x1="745.0" y1="55" x2="745.0" y2="380" stroke="#CFD6D3" stroke-width="1"/><text x="745.0" y="396" font-size="10" fill="#7A8590" text-anchor="middle">8%</text><text x="30" y="62" font-size="11" fill="#1C232C" text-anchor="start" font-weight="bold">모델</text><text x="230" y="62" font-size="11" fill="#1C232C" text-anchor="middle" font-weight="bold">해상도</text><text x="290" y="62" font-size="11" fill="#1C232C" text-anchor="middle" font-weight="bold">자르기</text><text x="345" y="62" font-size="11" fill="#1C232C" text-anchor="middle" font-weight="bold">모델 수</text><text x="400" y="62" font-size="11" fill="#1C232C" text-anchor="middle" font-weight="bold">평가</text><text x="30" y="94" font-size="11" fill="#2A78D6" text-anchor="start">GoogLeNet 앙상블</text><text x="230" y="94" font-size="11" fill="#1C232C" text-anchor="middle">224</text><text x="290" y="94" font-size="11" fill="#1C232C" text-anchor="middle">144</text><text x="345" y="94" font-size="11" fill="#1C232C" text-anchor="middle">7</text><text x="400" y="94" font-size="10" fill="#4E5964" text-anchor="middle">검증</text><circle cx="625.3" cy="90" r="6" fill="#2A78D6" stroke="#2A78D6" stroke-width="2"/><text x="635.3" y="94" font-size="10" fill="#1C232C" text-anchor="start">6.67</text><text x="30" y="127" font-size="11" fill="#2A78D6" text-anchor="start">Deep Image 저해상도</text><text x="230" y="127" font-size="11" fill="#1C232C" text-anchor="middle">256</text><text x="290" y="127" font-size="11" fill="#1C232C" text-anchor="middle">-</text><text x="345" y="127" font-size="11" fill="#1C232C" text-anchor="middle">1</text><text x="400" y="127" font-size="10" fill="#4E5964" text-anchor="middle">검증</text><circle cx="741.4" cy="123" r="6" fill="#2A78D6" stroke="#2A78D6" stroke-width="2"/><text x="751.4" y="127" font-size="10" fill="#1C232C" text-anchor="start">7.96</text><text x="30" y="160" font-size="11" fill="#2A78D6" text-anchor="start">Deep Image 고해상도</text><text x="230" y="160" font-size="11" fill="#1C232C" text-anchor="middle">512</text><text x="290" y="160" font-size="11" fill="#1C232C" text-anchor="middle">-</text><text x="345" y="160" font-size="11" fill="#1C232C" text-anchor="middle">1</text><text x="400" y="160" font-size="10" fill="#4E5964" text-anchor="middle">검증</text><circle cx="692.8" cy="156" r="6" fill="#2A78D6" stroke="#2A78D6" stroke-width="2"/><text x="702.8" y="160" font-size="10" fill="#1C232C" text-anchor="start">7.42</text><text x="30" y="193" font-size="11" fill="#2A78D6" text-anchor="start">Deep Image 앙상블</text><text x="230" y="193" font-size="11" fill="#1C232C" text-anchor="middle">≤512</text><text x="290" y="193" font-size="11" fill="#1C232C" text-anchor="middle">-</text><text x="345" y="193" font-size="11" fill="#1C232C" text-anchor="middle">-</text><text x="400" y="193" font-size="10" fill="#4E5964" text-anchor="middle">검증</text><circle cx="563.2" cy="189" r="6" fill="#2A78D6" stroke="#2A78D6" stroke-width="2"/><text x="573.2" y="193" font-size="10" fill="#1C232C" text-anchor="start">5.98</text><text x="30" y="226" font-size="11" fill="#2A78D6" text-anchor="start">MSRA 다중 자르기</text><text x="230" y="226" font-size="11" fill="#1C232C" text-anchor="middle">≤480</text><text x="290" y="226" font-size="11" fill="#1C232C" text-anchor="middle">-</text><text x="345" y="226" font-size="11" fill="#1C232C" text-anchor="middle">-</text><text x="400" y="226" font-size="10" fill="#4E5964" text-anchor="middle">검증</text><circle cx="538.9" cy="222" r="6" fill="#2A78D6" stroke="#2A78D6" stroke-width="2"/><text x="548.9" y="226" font-size="10" fill="#1C232C" text-anchor="start">5.71</text><text x="30" y="259" font-size="11" fill="#2A78D6" text-anchor="start">MSRA 앙상블</text><text x="230" y="259" font-size="11" fill="#1C232C" text-anchor="middle">≤480</text><text x="290" y="259" font-size="11" fill="#1C232C" text-anchor="middle">-</text><text x="345" y="259" font-size="11" fill="#1C232C" text-anchor="middle">-</text><text x="400" y="259" font-size="10" fill="#C0392B" text-anchor="middle">시험 서버</text><circle cx="469.6" cy="255" r="6" fill="#ECEFEC" stroke="#2A78D6" stroke-width="2"/><text x="479.6" y="259" font-size="10" fill="#1C232C" text-anchor="start">4.94</text><text x="30" y="292" font-size="11" fill="#EB6834" text-anchor="start" font-weight="bold">BN-Inception 한 번 자르기</text><text x="230" y="292" font-size="11" fill="#1C232C" text-anchor="middle">224</text><text x="290" y="292" font-size="11" fill="#1C232C" text-anchor="middle">1</text><text x="345" y="292" font-size="11" fill="#1C232C" text-anchor="middle">1</text><text x="400" y="292" font-size="10" fill="#4E5964" text-anchor="middle">검증</text><circle cx="728.8" cy="288" r="6" fill="#EB6834" stroke="#EB6834" stroke-width="2"/><text x="738.8" y="292" font-size="10" fill="#1C232C" text-anchor="start">7.82</text><text x="30" y="325" font-size="11" fill="#EB6834" text-anchor="start" font-weight="bold">BN-Inception 다중 자르기</text><text x="230" y="325" font-size="11" fill="#1C232C" text-anchor="middle">224</text><text x="290" y="325" font-size="11" fill="#1C232C" text-anchor="middle">144</text><text x="345" y="325" font-size="11" fill="#1C232C" text-anchor="middle">1</text><text x="400" y="325" font-size="10" fill="#4E5964" text-anchor="middle">검증</text><circle cx="548.8000000000001" cy="321" r="6" fill="#EB6834" stroke="#EB6834" stroke-width="2"/><text x="558.8000000000001" y="325" font-size="10" fill="#1C232C" text-anchor="start">5.82</text><text x="30" y="358" font-size="11" fill="#EB6834" text-anchor="start" font-weight="bold">BN-Inception 앙상블</text><text x="230" y="358" font-size="11" fill="#1C232C" text-anchor="middle">224</text><text x="290" y="358" font-size="11" fill="#1C232C" text-anchor="middle">144</text><text x="345" y="358" font-size="11" fill="#1C232C" text-anchor="middle">6</text><text x="400" y="358" font-size="10" fill="#C0392B" text-anchor="middle">시험 서버</text><circle cx="458.8" cy="354" r="6" fill="#ECEFEC" stroke="#EB6834" stroke-width="2"/><text x="468.8" y="358" font-size="10" fill="#1C232C" text-anchor="start">4.82</text><text x="410" y="420" font-size="11" fill="#4E5964" text-anchor="middle">속 빈 점 = 시험 서버 값. BN 앙상블은 검증 50,000 장에서 4.9% 라고 캡션이 적는다. 4.82 대 4.94 는 0.12 백분율 점 차이, 변동 폭은 없다</text><text x="410" y="440" font-size="11" fill="#7A8590" text-anchor="middle">top-1: BN-Inception 한 번 자르기 25.2%, 다중 자르기 21.99%, 앙상블 20.1% — 다른 줄은 top-1 이 대부분 비어 있다</text></svg>
