<svg xmlns="http://www.w3.org/2000/svg" width="820" height="470" viewBox="0 0 820 470" font-family="IBM Plex Sans KR, Malgun Gothic, Apple SD Gothic Neo, sans-serif" role="img" aria-label="망 D 의 층별 계산, 메모리, 파라미터"><rect x="0" y="0" width="100%" height="100%" fill="#ECEFEC"/><defs><marker id="af" viewBox="0 0 10 10" refX="9" refY="5" markerWidth="7" markerHeight="7" orient="auto-start-reverse"><path d="M0,0 L10,5 L0,10 z" fill="#2E6B8A"/></marker><marker id="ar" viewBox="0 0 10 10" refX="9" refY="5" markerWidth="7" markerHeight="7" orient="auto-start-reverse"><path d="M0,0 L10,5 L0,10 z" fill="#B4552B"/></marker><marker id="ai" viewBox="0 0 10 10" refX="9" refY="5" markerWidth="7" markerHeight="7" orient="auto-start-reverse"><path d="M0,0 L10,5 L0,10 z" fill="#4E5964"/></marker><marker id="ao" viewBox="0 0 10 10" refX="9" refY="5" markerWidth="7" markerHeight="7" orient="auto-start-reverse"><path d="M0,0 L10,5 L0,10 z" fill="#1E8449"/></marker><marker id="an" viewBox="0 0 10 10" refX="9" refY="5" markerWidth="7" markerHeight="7" orient="auto-start-reverse"><path d="M0,0 L10,5 L0,10 z" fill="#C0392B"/></marker><marker id="ac" viewBox="0 0 10 10" refX="9" refY="5" markerWidth="7" markerHeight="7" orient="auto-start-reverse"><path d="M0,0 L10,5 L0,10 z" fill="#9A7B00"/></marker></defs><text x="20" y="30" font-size="15" fill="#1C232C" text-anchor="start" font-weight="bold">망 D(16 층)의 층별 비용 — 224x224 한 장, 이 파일이 센 값</text><text x="255.0" y="60" font-size="12" fill="#2A78D6" text-anchor="middle" font-weight="bold">활성 수 (메모리)</text><rect x="150" y="72" width="160.0" height="14" rx="2" fill="#2A78D6"/><text x="314.0" y="83" font-size="9" fill="#4E5964" text-anchor="start">23.7%</text><rect x="150" y="92" width="160.0" height="14" rx="2" fill="#2A78D6"/><text x="314.0" y="103" font-size="9" fill="#4E5964" text-anchor="start">23.7%</text><rect x="150" y="112" width="80.0" height="14" rx="2" fill="#2A78D6"/><text x="234.0" y="123" font-size="9" fill="#4E5964" text-anchor="start">11.8%</text><rect x="150" y="132" width="80.0" height="14" rx="2" fill="#2A78D6"/><text x="234.0" y="143" font-size="9" fill="#4E5964" text-anchor="start">11.8%</text><rect x="150" y="152" width="40.0" height="14" rx="2" fill="#2A78D6"/><text x="194.0" y="163" font-size="9" fill="#4E5964" text-anchor="start">5.9%</text><rect x="150" y="172" width="40.0" height="14" rx="2" fill="#2A78D6"/><text x="194.0" y="183" font-size="9" fill="#4E5964" text-anchor="start">5.9%</text><rect x="150" y="192" width="40.0" height="14" rx="2" fill="#2A78D6"/><text x="194.0" y="203" font-size="9" fill="#4E5964" text-anchor="start">5.9%</text><rect x="150" y="212" width="20.0" height="14" rx="2" fill="#2A78D6"/><text x="174.0" y="223" font-size="9" fill="#4E5964" text-anchor="start">3.0%</text><rect x="150" y="232" width="20.0" height="14" rx="2" fill="#2A78D6"/><text x="174.0" y="243" font-size="9" fill="#4E5964" text-anchor="start">3.0%</text><rect x="150" y="252" width="20.0" height="14" rx="2" fill="#2A78D6"/><text x="174.0" y="263" font-size="9" fill="#4E5964" text-anchor="start">3.0%</text><rect x="150" y="272" width="5.0" height="14" rx="2" fill="#2A78D6"/><text x="159.0" y="283" font-size="9" fill="#4E5964" text-anchor="start">0.7%</text><rect x="150" y="292" width="5.0" height="14" rx="2" fill="#2A78D6"/><text x="159.0" y="303" font-size="9" fill="#4E5964" text-anchor="start">0.7%</text><rect x="150" y="312" width="5.0" height="14" rx="2" fill="#2A78D6"/><text x="159.0" y="323" font-size="9" fill="#4E5964" text-anchor="start">0.7%</text><rect x="150" y="332" width="0.5" height="14" rx="2" fill="#2A78D6"/><text x="154.20408163265307" y="343" font-size="9" fill="#4E5964" text-anchor="start">0.0%</text><rect x="150" y="352" width="0.5" height="14" rx="2" fill="#2A78D6"/><text x="154.20408163265307" y="363" font-size="9" fill="#4E5964" text-anchor="start">0.0%</text><rect x="150" y="372" width="0.5" height="14" rx="2" fill="#2A78D6"/><text x="154.04982461734693" y="383" font-size="9" fill="#4E5964" text-anchor="start">0.0%</text><text x="480.0" y="60" font-size="12" fill="#EB6834" text-anchor="middle" font-weight="bold">곱셈-덧셈 (계산)</text><rect x="375" y="72" width="7.5" height="14" rx="2" fill="#EB6834"/><text x="386.5" y="83" font-size="9" fill="#4E5964" text-anchor="start">0.6%</text><rect x="375" y="92" width="160.0" height="14" rx="2" fill="#EB6834"/><text x="539.0" y="103" font-size="9" fill="#4E5964" text-anchor="start">12.0%</text><rect x="375" y="112" width="80.0" height="14" rx="2" fill="#EB6834"/><text x="459.0" y="123" font-size="9" fill="#4E5964" text-anchor="start">6.0%</text><rect x="375" y="132" width="160.0" height="14" rx="2" fill="#EB6834"/><text x="539.0" y="143" font-size="9" fill="#4E5964" text-anchor="start">12.0%</text><rect x="375" y="152" width="80.0" height="14" rx="2" fill="#EB6834"/><text x="459.0" y="163" font-size="9" fill="#4E5964" text-anchor="start">6.0%</text><rect x="375" y="172" width="160.0" height="14" rx="2" fill="#EB6834"/><text x="539.0" y="183" font-size="9" fill="#4E5964" text-anchor="start">12.0%</text><rect x="375" y="192" width="160.0" height="14" rx="2" fill="#EB6834"/><text x="539.0" y="203" font-size="9" fill="#4E5964" text-anchor="start">12.0%</text><rect x="375" y="212" width="80.0" height="14" rx="2" fill="#EB6834"/><text x="459.0" y="223" font-size="9" fill="#4E5964" text-anchor="start">6.0%</text><rect x="375" y="232" width="160.0" height="14" rx="2" fill="#EB6834"/><text x="539.0" y="243" font-size="9" fill="#4E5964" text-anchor="start">12.0%</text><rect x="375" y="252" width="160.0" height="14" rx="2" fill="#EB6834"/><text x="539.0" y="263" font-size="9" fill="#4E5964" text-anchor="start">12.0%</text><rect x="375" y="272" width="40.0" height="14" rx="2" fill="#EB6834"/><text x="419.0" y="283" font-size="9" fill="#4E5964" text-anchor="start">3.0%</text><rect x="375" y="292" width="40.0" height="14" rx="2" fill="#EB6834"/><text x="419.0" y="303" font-size="9" fill="#4E5964" text-anchor="start">3.0%</text><rect x="375" y="312" width="40.0" height="14" rx="2" fill="#EB6834"/><text x="419.0" y="323" font-size="9" fill="#4E5964" text-anchor="start">3.0%</text><rect x="375" y="332" width="8.9" height="14" rx="2" fill="#EB6834"/><text x="387.8888888888889" y="343" font-size="9" fill="#4E5964" text-anchor="start">0.7%</text><rect x="375" y="352" width="1.5" height="14" rx="2" fill="#EB6834"/><text x="380.4512471655329" y="363" font-size="9" fill="#4E5964" text-anchor="start">0.1%</text><rect x="375" y="372" width="0.5" height="14" rx="2" fill="#EB6834"/><text x="379.35430839002265" y="383" font-size="9" fill="#4E5964" text-anchor="start">0.0%</text><text x="705.0" y="60" font-size="12" fill="#1BAF7A" text-anchor="middle" font-weight="bold">파라미터</text><rect x="600" y="72" width="0.5" height="14" rx="2" fill="#1BAF7A"/><text x="604.0027900673603" y="83" font-size="9" fill="#4E5964" text-anchor="start">0.0%</text><rect x="600" y="92" width="0.5" height="14" rx="2" fill="#1BAF7A"/><text x="604.0574953166727" y="103" font-size="9" fill="#4E5964" text-anchor="start">0.0%</text><rect x="600" y="112" width="0.5" height="14" rx="2" fill="#1BAF7A"/><text x="604.1149906333453" y="123" font-size="9" fill="#4E5964" text-anchor="start">0.1%</text><rect x="600" y="132" width="0.5" height="14" rx="2" fill="#1BAF7A"/><text x="604.2297819761649" y="143" font-size="9" fill="#4E5964" text-anchor="start">0.1%</text><rect x="600" y="152" width="0.5" height="14" rx="2" fill="#1BAF7A"/><text x="604.4595639523297" y="163" font-size="9" fill="#4E5964" text-anchor="start">0.2%</text><rect x="600" y="172" width="0.9" height="14" rx="2" fill="#1BAF7A"/><text x="604.918729323608" y="183" font-size="9" fill="#4E5964" text-anchor="start">0.4%</text><rect x="600" y="192" width="0.9" height="14" rx="2" fill="#1BAF7A"/><text x="604.918729323608" y="203" font-size="9" fill="#4E5964" text-anchor="start">0.4%</text><rect x="600" y="212" width="1.8" height="14" rx="2" fill="#1BAF7A"/><text x="605.837458647216" y="223" font-size="9" fill="#4E5964" text-anchor="start">0.9%</text><rect x="600" y="232" width="3.7" height="14" rx="2" fill="#1BAF7A"/><text x="607.6741201323289" y="243" font-size="9" fill="#4E5964" text-anchor="start">1.7%</text><rect x="600" y="252" width="3.7" height="14" rx="2" fill="#1BAF7A"/><text x="607.6741201323289" y="263" font-size="9" fill="#4E5964" text-anchor="start">1.7%</text><rect x="600" y="272" width="3.7" height="14" rx="2" fill="#1BAF7A"/><text x="607.6741201323289" y="283" font-size="9" fill="#4E5964" text-anchor="start">1.7%</text><rect x="600" y="292" width="3.7" height="14" rx="2" fill="#1BAF7A"/><text x="607.6741201323289" y="303" font-size="9" fill="#4E5964" text-anchor="start">1.7%</text><rect x="600" y="312" width="3.7" height="14" rx="2" fill="#1BAF7A"/><text x="607.6741201323289" y="323" font-size="9" fill="#4E5964" text-anchor="start">1.7%</text><rect x="600" y="332" width="160.0" height="14" rx="2" fill="#1BAF7A"/><text x="764.0" y="343" font-size="9" fill="#4E5964" text-anchor="start">74.3%</text><rect x="600" y="352" width="26.1" height="14" rx="2" fill="#1BAF7A"/><text x="630.127785085097" y="363" font-size="9" fill="#4E5964" text-anchor="start">12.1%</text><rect x="600" y="372" width="6.4" height="14" rx="2" fill="#1BAF7A"/><text x="610.3788537805412" y="383" font-size="9" fill="#4E5964" text-anchor="start">3.0%</text><text x="140" y="83" font-size="10" fill="#1C232C" text-anchor="end">conv3-64  224x224</text><text x="140" y="103" font-size="10" fill="#1C232C" text-anchor="end">conv3-64  224x224</text><text x="140" y="123" font-size="10" fill="#1C232C" text-anchor="end">conv3-128  112x112</text><text x="140" y="143" font-size="10" fill="#1C232C" text-anchor="end">conv3-128  112x112</text><text x="140" y="163" font-size="10" fill="#1C232C" text-anchor="end">conv3-256  56x56</text><text x="140" y="183" font-size="10" fill="#1C232C" text-anchor="end">conv3-256  56x56</text><text x="140" y="203" font-size="10" fill="#1C232C" text-anchor="end">conv3-256  56x56</text><text x="140" y="223" font-size="10" fill="#1C232C" text-anchor="end">conv3-512  28x28</text><text x="140" y="243" font-size="10" fill="#1C232C" text-anchor="end">conv3-512  28x28</text><text x="140" y="263" font-size="10" fill="#1C232C" text-anchor="end">conv3-512  28x28</text><text x="140" y="283" font-size="10" fill="#1C232C" text-anchor="end">conv3-512  14x14</text><text x="140" y="303" font-size="10" fill="#1C232C" text-anchor="end">conv3-512  14x14</text><text x="140" y="323" font-size="10" fill="#1C232C" text-anchor="end">conv3-512  14x14</text><text x="140" y="343" font-size="10" fill="#1C232C" text-anchor="end">fc-4096  1x1</text><text x="140" y="363" font-size="10" fill="#1C232C" text-anchor="end">fc-4096  1x1</text><text x="140" y="383" font-size="10" fill="#1C232C" text-anchor="end">fc-1000  1x1</text><text x="410" y="440" font-size="11" fill="#4E5964" text-anchor="middle">메모리는 앞쪽(224x224, 64 채널)에, 계산은 합성곱 층 전체에 퍼져 있고, 파라미터는 첫 완전연결 층 하나에 몰린다</text><text x="410" y="458" font-size="11" fill="#7A8590" text-anchor="middle">합계: 곱셈-덧셈 15.47 G, 활성 13.6 M 개, 파라미터 138.4 M — 퍼센트는 각 열의 합에 대한 몫</text></svg>
